<?xml version="1.0" encoding="UTF-8"?>
<svg width="48px" height="83px" viewBox="0 0 48 83" version="1.1" xmlns="http://www.w3.org/2000/svg" xmlns:xlink="http://www.w3.org/1999/xlink">
    <!-- Generator: Sketch 52.5 (67469) - http://www.bohemiancoding.com/sketch -->
    <title>Group</title>
    <desc>Created with Sketch.</desc>
    <defs>
        <path d="M1,-4.97379915e-14 C8.69712681,1.0933882 16.3375484,1.6400823 23.9212646,1.6400823 C31.5049809,1.6400823 39.1978927,1.0933882 47,-4.97379915e-14 C47.5321161,12.8629195 47.5321161,20.5896425 47,23.180169 C44.3953042,35.8607365 39.3315494,37.0185043 39.3315494,49.6990718 C39.3315494,74.5486077 45.0100399,76.0527043 45.0100399,79.5714162 C45.0100399,81.9172241 43.6662203,82.9803962 40.978581,82.7609324 L7.17932343,82.7609324 C4.4462732,82.7609324 3.07974809,81.6977603 3.07974809,79.5714162 C3.07974809,76.3819 9.16105344,74.5486077 9.16105344,49.6990718 C9.16105344,36.9821423 4.67727703,35.8970985 1,23.180169 C0.257922946,20.6138838 0.257922946,12.8871608 1,-4.97379915e-14 Z" id="path-1"></path>
    </defs>
    <g id="Page-1" stroke="none" stroke-width="1" fill="none" fill-rule="evenodd">
        <g id="Assests" transform="translate(-61.000000, -74.000000)">
            <g id="Group" transform="translate(61.000000, 74.000000)">
                <rect id="Rectangle" stroke-opacity="0" stroke="#979797" fill="#D8D8D8" x="1.5" y="0.5" width="45" height="3"></rect>
                <mask id="mask-2" fill="white">
                    <use xlink:href="#path-1"></use>
                </mask>
                <path stroke-opacity="0.328011775" stroke="#000000" d="M1.46823573,0.570662462 C0.761484971,13.0598399 0.771533938,20.5901141 1.48032185,23.0412773 C2.00354001,24.8506945 2.56627614,26.5046196 3.18490076,28.0854447 C3.76327631,29.5634179 4.35765582,30.904091 5.12365333,32.5039559 C5.05212386,32.3545592 6.53920666,35.4130278 6.91408154,36.231388 C8.8551459,40.468775 9.66105344,43.9917832 9.66105344,49.6990718 C9.66105344,60.5613251 8.54568827,67.8315016 6.58723058,72.9368322 C5.81163066,74.9586751 3.72670625,78.6471579 3.62393404,79.1478922 C3.59439772,79.2918012 3.57974809,79.4313099 3.57974809,79.5714162 C3.57974809,81.3902636 4.69884328,82.2609324 7.17932343,82.2609324 L41.019274,82.262591 C43.4315832,82.4595723 44.5100399,81.6063439 44.5100399,79.5714162 C44.5100399,79.3404885 44.4812135,79.1143225 44.4228459,78.8782841 C44.297108,78.3698009 42.3958992,74.7252874 41.7006451,72.8044778 C39.869196,67.7446512 38.8315494,60.5514002 38.8315494,49.6990718 C38.8315494,44.1183847 39.6698832,40.7192184 41.7347744,36.2306549 C41.8531943,35.9732392 43.0923389,33.3516918 43.4639079,32.5221262 C44.8323612,29.4669142 45.7710731,26.6780178 46.5102257,23.0795652 C47.022851,20.5839263 47.0302327,13.0515124 46.5229896,0.570867372 C38.8852491,1.61697886 31.3512983,2.1400823 23.9212646,2.1400823 C16.4907961,2.1400823 9.00640353,1.61691751 1.46823607,0.570656379 Z"></path>
                <text id="RUSH" opacity="0.980701265" mask="url(#mask-2)" transform="translate(28.092209, 36.605243) rotate(-51.000000) translate(-28.092209, -36.605243) " font-family="Charter-Italic, Charter" font-size="23" font-style="italic" font-weight="normal" fill="#E3C4A8">
                    <tspan x="-3.40779124" y="45.1052435">RUSH</tspan>
                </text>
                <path d="M6.06930798,5.9981082 C5.51829597,14.2393562 5.75384552,19.5428827 6.77595664,21.9086878 C7.79806776,24.2744929 9.07244469,27.946912 10.5990875,32.9259451" id="Path-2" stroke="#9C96B2" mask="url(#mask-2)"></path>
            </g>
        </g>
    </g>
</svg>