<?xml version="1.0" encoding="UTF-8"?>
<svg width="86px" height="155px" viewBox="0 0 86 155" version="1.1" xmlns="http://www.w3.org/2000/svg" xmlns:xlink="http://www.w3.org/1999/xlink">
    <!-- Generator: Sketch 52.5 (67469) - http://www.bohemiancoding.com/sketch -->
    <title>Group 2</title>
    <desc>Created with Sketch.</desc>
    <g id="Page-1" stroke="none" stroke-width="1" fill="none" fill-rule="evenodd">
        <g id="Assests" transform="translate(-108.000000, -98.000000)">
            <g id="Group-2" transform="translate(109.000000, 98.000000)">
                <path d="M3.5,21.5 L80.5,21.5 L80.5,7 C80.5,3.41014913 77.5898509,0.5 74,0.5 L10,0.5 C6.41014913,0.5 3.5,3.41014913 3.5,7 L3.5,21.5 Z" id="Rectangle" stroke-opacity="0" stroke="#979797" fill="#FCE5BE"></path>
                <path d="M5.80194469,4.89037788 C17.7710382,7.32934269 29.7863839,8.5488251 41.8479817,8.5488251 C53.8722918,8.5488251 65.8966931,7.33687093 77.9211855,4.91296261 L77.9211873,4.91297162 C80.0867604,4.47643337 82.1961885,5.87809311 82.6327267,8.04366625 C82.658176,8.16991463 82.6775132,8.29731843 82.6906707,8.42543243 C84.1610868,22.7427848 83.9964688,33.7406712 82.1968167,41.4190914 C79.2255505,54.0963365 62.9269364,81.3491065 62.8884947,106.384367 C62.8664358,120.750271 67.5890156,134.509921 77.0562342,147.663317 L77.0562253,147.663323 C78.3467424,149.456319 77.939403,151.956 76.1464072,153.246517 C75.4657559,153.736419 74.6483432,154 73.8097192,154 L11.4581057,153.999993 C9.24897078,153.999993 7.45811306,152.209135 7.45811306,150 C7.45811306,149.048256 7.79747135,148.127698 8.41522879,147.403687 C17.3117418,136.97698 21.7599983,123.303874 21.7599983,106.384367 C21.7599983,75.2463041 5.01604477,58.4629316 1.67201492,41.4190914 C-0.320694779,31.2626553 -0.532218843,20.2189869 1.03744273,8.28808648 L1.0374332,8.28808522 C1.32559108,6.09781501 3.33475403,4.5558483 5.52502424,4.84400618 C5.61784528,4.85621796 5.71020899,4.87168473 5.80194469,4.89037788 Z" id="Path-3" stroke="#2F2F2F" fill="#33313B"></path>
                <text id="BEER" opacity="0.980701265" transform="translate(70.225293, 86.545262) rotate(-55.000000) translate(-70.225293, -86.545262) " font-family="Charter-Italic, Charter" font-size="29" font-style="italic" font-weight="normal" fill="#E3C4A8">
                    <tspan x="25.975293" y="75.6702619">BEER</tspan>
                </text>
                <path d="M11.5606673,14 C10.4935415,28.9199076 10.9497221,38.5213813 12.9292091,42.8044212 C14.9086961,47.0874611 17.3767375,53.7359873 20.3333333,62.75" id="Path-2" stroke="#9C96B2"></path>
            </g>
        </g>
    </g>
</svg>