<?xml version="1.0" encoding="UTF-8"?>
<svg width="16px" height="20px" viewBox="0 0 16 20" version="1.1" xmlns="http://www.w3.org/2000/svg" xmlns:xlink="http://www.w3.org/1999/xlink">
    <!-- Generator: Sketch 52.5 (67469) - http://www.bohemiancoding.com/sketch -->
    <title>Shape</title>
    <desc>Created with Sketch.</desc>
    <g id="Page-1" stroke="none" stroke-width="1" fill="none" fill-rule="evenodd">
        <g id="Mobile_List" transform="translate(-20.000000, -20.000000)" fill="#423C44" fill-rule="nonzero">
            <path d="M35.400836,20 L20.5994036,20 C20.268293,20 20,20.2677802 20,20.5982579 L20,24.0681535 C20,24.0765291 20.0021579,24.0844262 20.0026374,24.0930411 C20.0031169,24.1073993 20.0052748,24.1210395 20.0069531,24.1353977 C20.0112688,24.172729 20.0187014,24.2091031 20.0294907,24.2440414 C20.0333268,24.2560065 20.0359642,24.2677324 20.0405197,24.2792189 C20.0580223,24.3254044 20.0800803,24.3694362 20.1078926,24.4093998 C20.1088517,24.4105963 20.1093312,24.4122715 20.1102903,24.4137073 L25.8274017,32.4815737 L25.8274017,39.4017421 C25.8274017,39.6118503 25.9379317,39.8066431 26.1184721,39.9148081 C26.2134176,39.9715229 26.3198717,40 26.4268053,40 C26.5236689,40 26.6207723,39.9765483 26.7090045,39.9296449 L29.8558733,38.2545228 C30.0510391,38.150426 30.1730777,37.9474969 30.1730777,37.7266201 L30.1730777,32.4851632 L34.504368,26.5095243 C34.6985748,26.241744 34.6383947,25.8677132 34.3701016,25.674117 C34.1018086,25.4805207 33.7268217,25.5405858 33.5330944,25.8081267 L29.0879174,31.9407485 C29.0138311,32.042931 28.9740307,32.1654542 28.9740307,32.291567 L28.9740307,37.3679047 L27.0259691,38.4048052 L27.0259691,32.2913277 C27.0259691,32.1673686 26.9876073,32.0469991 26.9159186,31.9460132 L21.7572116,24.6664114 L35.4005963,24.6664114 C35.7317068,24.6664114 35.9999998,24.3986312 35.9999998,24.0681535 L35.9999998,20.5982579 C36.0002396,20.2677802 35.7319466,20 35.400836,20 Z M21.1988072,23.4698957 L21.1988072,21.1965157 L34.8014324,21.1965157 L34.8014324,23.4698957 L21.1988072,23.4698957 Z" id="Shape"></path>
        </g>
    </g>
</svg>