<?xml version="1.0" encoding="UTF-8"?>
<svg width="216px" height="152px" viewBox="0 0 216 152" version="1.1" xmlns="http://www.w3.org/2000/svg" xmlns:xlink="http://www.w3.org/1999/xlink">
    <!-- Generator: Sketch 52.5 (67469) - http://www.bohemiancoding.com/sketch -->
    <title>Group</title>
    <desc>Created with Sketch.</desc>
    <defs>
        <path d="M1.102,0.498 C0.585,0.498 0.24,0.755 0.24,1.358 L0.24,68.263 C0.24,68.777 0.498,69.121 1.102,69.121 L32.991,69.121 C42.558,69.121 48.503,64.746 48.503,53.682 L48.503,46.39 C48.503,39.955 47.21,36.525 41.178,34.381 C47.039,32.665 48.503,29.319 48.503,22.629 L48.503,15.939 C48.503,4.872 42.558,0.498 32.991,0.498 L1.102,0.498 Z M15.323,13.366 L30.837,13.366 C32.387,13.366 33.421,14.052 33.421,15.939 L33.421,25.803 C33.421,27.691 32.56,28.377 30.923,28.377 L15.323,28.377 L15.323,13.366 Z M15.323,40.383 L30.837,40.383 C32.387,40.383 33.421,41.329 33.421,42.96 L33.421,53.682 C33.421,55.567 32.387,56.254 30.837,56.254 L15.323,56.254 L15.323,40.383 Z" id="path-1"></path>
        <linearGradient x1="0%" y1="0%" x2="0%" y2="0%" id="linearGradient-3"></linearGradient>
    </defs>
    <g id="Page-1" stroke="none" stroke-width="1" fill="none" fill-rule="evenodd">
        <g id="Artboard" transform="translate(-115.000000, -95.000000)">
            <g id="beer-store-seeklogo.com" transform="translate(76.000000, 64.000000)">
                <g id="Group" transform="translate(39.000000, 30.000000)">
                    <g id="Group-4" transform="translate(1.000000, 19.324000)">
                        <mask id="mask-2" fill="white">
                            <use xlink:href="#path-1"></use>
                        </mask>
                        <use id="Clip-3" fill="#F5A623" xlink:href="#path-1"></use>
                        <path d="M1.102,0.498 C0.585,0.498 0.24,0.755 0.24,1.358 L0.24,68.263 C0.24,68.777 0.498,69.121 1.102,69.121 L32.991,69.121 C42.558,69.121 48.503,64.746 48.503,53.682 L48.503,46.39 C48.503,39.955 47.21,36.525 41.178,34.381 C47.039,32.665 48.503,29.319 48.503,22.629 L48.503,15.939 C48.503,4.872 42.558,0.498 32.991,0.498 L1.102,0.498 Z M15.323,13.366 L30.837,13.366 C32.387,13.366 33.421,14.052 33.421,15.939 L33.421,25.803 C33.421,27.691 32.56,28.377 30.923,28.377 L15.323,28.377 L15.323,13.366 Z M15.323,40.383 L30.837,40.383 C32.387,40.383 33.421,41.329 33.421,42.96 L33.421,53.682 C33.421,55.567 32.387,56.254 30.837,56.254 L15.323,56.254 L15.323,40.383 Z" id="Fill-2" mask="url(#mask-2)"></path>
                    </g>
                    <g id="Group-23" transform="translate(0.000000, 0.324000)" fill="#FFFFFE">
                        <path d="M59.3169,88.1211 L102.4099,88.1211 C103.0129,88.1211 103.2719,87.8621 103.2719,87.2631 L103.2719,75.6831 C103.2719,75.1691 103.0989,74.8251 102.4099,74.8251 L73.5379,74.8251 L73.5379,59.8141 L96.3779,59.8141 C96.9799,59.8141 97.2389,59.5561 97.2389,58.9551 L97.2389,47.8051 C97.2389,47.2901 97.0659,46.9481 96.3779,46.9481 L73.5379,46.9481 L73.5379,32.3661 L102.4099,32.3661 C103.0129,32.3661 103.2729,32.1091 103.2729,31.5061 L103.2729,20.3571 C103.2729,19.8421 103.0989,19.4981 102.4099,19.4981 L59.3179,19.4981 C58.8009,19.4981 58.4559,19.7551 58.4559,20.3571 L58.4549,87.2631 C58.4549,87.7761 58.7139,88.1211 59.3169,88.1211" id="Fill-5"></path>
                        <path d="M113.104,88.1211 L156.194,88.1211 C156.799,88.1211 157.057,87.8621 157.057,87.2631 L157.057,75.6831 C157.057,75.1691 156.885,74.8251 156.194,74.8251 L127.323,74.8251 L127.323,59.8141 L150.163,59.8141 C150.766,59.8141 151.024,59.5561 151.024,58.9551 L151.024,47.8051 C151.024,47.2901 150.852,46.9481 150.163,46.9481 L127.323,46.9481 L127.323,32.3661 L156.194,32.3661 C156.799,32.3661 157.057,32.1091 157.057,31.5061 L157.057,20.3571 C157.057,19.8421 156.885,19.4981 156.194,19.4981 L113.104,19.4981 C112.585,19.4981 112.241,19.7551 112.241,20.3571 L112.241,87.2631 C112.241,87.7761 112.499,88.1211 113.104,88.1211" id="Fill-7"></path>
                        <path d="M198.8891,48.6631 C198.8891,50.5501 197.9421,51.2361 196.3031,51.2361 L180.7891,51.2361 L180.7891,32.3661 L196.3031,32.3661 C197.9421,32.3661 198.8891,33.0521 198.8891,34.9391 L198.8891,48.6631 Z M215.2621,86.8331 L205.6961,62.0451 C211.6431,59.5561 213.9711,56.1261 213.9711,46.9481 L213.9711,34.0811 C213.6251,23.6161 207.8521,19.4981 198.4571,19.4981 L166.5711,19.4981 C166.0531,19.4981 165.7051,19.7561 165.7051,20.3571 L165.7051,87.2631 C165.7051,87.7771 165.9671,88.1211 166.5711,88.1211 L179.9281,88.1211 C180.4461,88.1211 180.7891,87.8621 180.7891,87.2631 L180.7891,64.1011 L191.5611,64.1011 L199.4071,86.8331 C199.8361,88.1211 200.2681,88.1211 201.5611,88.1211 L214.4011,88.1211 C214.8321,88.1211 215.3501,87.9491 215.3501,87.3491 C215.3501,87.2631 215.3501,87.0911 215.2621,86.8331 Z" id="Fill-9"></path>
                        <path d="M80.1216,98.0274 L43.5966,98.0274 C43.0646,98.0274 42.7476,98.3434 42.7476,98.8734 L42.7476,107.8064 C42.7476,108.3364 43.0646,108.6514 43.5966,108.6514 L55.8176,108.6514 L55.8176,150.9004 C55.8176,151.4294 56.1346,151.7464 56.6656,151.7464 L67.0516,151.7464 C67.5846,151.7464 67.9016,151.4294 67.9016,150.9004 L67.9016,108.6514 L80.1216,108.6514 C80.6596,108.6514 80.9706,108.3434 80.9706,107.8064 L80.9706,98.8734 C80.9706,98.3434 80.6516,98.0274 80.1216,98.0274" id="Fill-11"></path>
                        <path d="M107.7944,142.3164 L102.0994,142.3164 C99.3274,142.3164 97.9224,140.9174 97.9224,138.1584 L97.9224,111.5464 C97.9224,108.7894 99.3274,107.3904 102.0994,107.3904 L107.7944,107.3904 C109.7014,107.3904 111.9734,108.1114 111.9734,111.5464 L111.9734,138.1584 C111.9734,140.9174 110.5664,142.3164 107.7944,142.3164 M119.4884,100.6144 C116.6864,98.2344 112.5254,97.0284 107.1264,97.0284 L102.7694,97.0284 C97.4044,97.0284 93.2284,98.3324 90.3534,100.9004 C87.3554,103.5804 85.8374,107.5874 85.8374,112.8134 L85.8374,138.1584 C85.8374,143.1314 87.4094,146.8874 90.5124,149.3224 C93.3494,151.5484 97.4744,152.6774 102.7694,152.6774 L107.1264,152.6774 C112.4224,152.6774 116.5454,151.5484 119.3834,149.3224 C122.4844,146.8874 124.0574,143.1314 124.0574,138.1584 L124.0574,112.5484 C124.0574,107.2024 122.5224,103.1874 119.4884,100.6144" id="Fill-13"></path>
                        <path d="M158.6196,110.2139 L158.6196,120.8869 C158.6196,122.1619 158.0726,122.7059 156.7896,122.7059 L144.9046,122.7059 L144.9046,108.3909 L156.7896,108.3909 C158.0726,108.3909 158.6196,108.9369 158.6196,110.2139 Z M164.3226,131.3869 C166.7306,130.3559 168.2386,129.1399 169.1996,127.4599 C170.2406,125.6389 170.7056,123.1989 170.7056,119.5489 L170.7056,109.5389 C170.4496,101.7929 166.4476,98.0279 158.4656,98.0279 L133.6686,98.0269 C133.1376,98.0269 132.8186,98.3439 132.8186,98.8729 L132.8186,150.8999 C132.8186,151.4299 133.1376,151.7459 133.6686,151.7459 L144.0556,151.7459 C144.5866,151.7459 144.9046,151.4299 144.9046,150.8999 L144.9046,133.0699 L152.9746,133.0699 L159.0316,150.6209 C159.4086,151.7459 159.8676,151.7459 160.8756,151.7459 L170.8616,151.7459 C171.4266,151.7459 171.7776,151.4459 171.7776,150.9649 C171.7776,150.8919 171.7776,150.7369 171.6996,150.5009 L164.3226,131.3869 Z" id="Fill-15"></path>
                        <path d="M213.1333,98.0371 L179.6233,98.0371 C179.0983,98.0371 178.7833,98.3491 178.7833,98.8731 L178.7833,150.9001 C178.7833,151.4241 179.0983,151.7361 179.6233,151.7361 L213.1333,151.7361 C213.6973,151.7361 213.9713,151.4631 213.9713,150.9001 L213.9713,141.8951 C213.9713,141.3321 213.6973,141.0581 213.1333,141.0581 L190.8523,141.0581 L190.8523,129.7261 L208.4423,129.7261 C209.0063,129.7261 209.2793,129.4521 209.2793,128.8891 L209.2793,120.2161 C209.2793,119.6531 209.0063,119.3801 208.4423,119.3801 L190.8523,119.3801 L190.8523,108.3831 L213.1333,108.3831 C213.6973,108.3831 213.9713,108.1081 213.9713,107.5451 L213.9713,98.8731 C213.9713,98.3101 213.6973,98.0371 213.1333,98.0371" id="Fill-17"></path>
                        <path d="M2.0796,11.5938 L46.1336,11.5938 C46.6176,11.5938 46.9526,11.2758 46.9526,10.7478 L46.9526,4.5628 L46.9526,4.5528 L46.9526,4.5008 C46.9526,2.4698 45.2956,0.8128 43.2576,0.8128 L4.9436,0.8128 C2.9026,0.8128 1.2496,2.4698 1.2496,4.4938 L1.2496,4.5408 L1.2496,4.5628 L1.2496,10.7478 C1.2496,11.3038 1.6216,11.5938 2.0796,11.5938" id="Fill-19"></path>
                        <path d="M25.5679,120.3447 L16.8679,117.3477 C13.8259,116.3407 12.6419,114.8007 12.6419,111.8557 L12.6419,111.5257 C12.6419,108.7707 14.0449,107.3737 16.8109,107.3737 L22.8349,107.3737 C25.6019,107.3737 27.0049,108.7707 27.0049,111.5257 L27.0049,113.5227 C27.0049,114.0507 27.3219,114.3677 27.8509,114.3677 L37.8889,114.3677 C38.4199,114.3677 38.7359,114.0507 38.7359,113.5227 L38.7359,112.4567 C38.7359,102.2187 33.0479,97.0287 21.8299,97.0287 L17.4809,97.0287 C12.1099,97.0287 7.9299,98.3377 5.0589,100.9197 C2.0839,103.5967 0.5749,107.5897 0.5749,112.7927 C0.7789,121.9047 4.7199,124.8377 14.0779,128.3417 L22.7749,131.3347 C25.8189,132.4137 27.0049,133.9547 27.0049,136.8277 L27.0049,138.1607 C27.0049,140.9137 25.6019,142.3107 22.8349,142.3107 L16.1439,142.3107 C13.3769,142.3107 11.9719,140.9137 11.9719,138.1607 L11.9719,135.1637 C11.9719,134.6347 11.6559,134.3187 11.1249,134.3187 L1.0889,134.3187 C0.5579,134.3187 0.2409,134.6347 0.2409,135.1637 L0.2409,136.8957 C0.2409,142.3407 1.7589,146.4177 4.7529,149.0177 C7.5739,151.4667 11.6279,152.6567 17.1469,152.6567 L22.1649,152.6567 C27.5829,152.6567 31.7439,151.4317 34.5339,149.0177 C37.5449,146.4107 39.0709,142.3347 39.0709,136.8957 C39.0709,127.0277 35.5339,123.9817 25.5679,120.3447" id="Fill-21"></path>
                    </g>
                </g>
            </g>
        </g>
    </g>
</svg>